<svg
  width="26"
  height="26"
  viewBox="0 0 26 26"
  fill="none"
  xmlns="http://www.w3.org/2000/svg"
>
  <g clip-path="url(#clip0_1_18)">
    <path
      d="M22.7476 8.34788C23.0585 8.34788 23.3399 8.22192 23.5437 8.01812C23.7475 7.81431 23.8735 7.53291 23.8735 7.22198C23.8735 6.60018 23.3694 6.09637 22.7476 6.09637C22.1258 6.09637 21.6217 6.60047 21.6217 7.22198C21.6217 7.84379 22.1257 8.34788 22.7476 8.34788Z"
      fill="currentColor"
    />
    <path
      d="M6.38768 20.1442C5.80539 20.1442 5.33356 20.6164 5.33356 21.1984C5.33356 21.7803 5.80569 22.2525 6.38768 22.2525C6.96968 22.2525 7.44181 21.7806 7.44181 21.1984C7.44181 20.6161 6.96998 20.1442 6.38768 20.1442Z"
      fill="currentColor"
    />
    <path
      d="M22.2446 8.9577V18.041H23.2509V8.9577C23.0988 9.03435 22.9297 9.08153 22.7478 9.08153C22.5658 9.08153 22.3967 9.03405 22.2446 8.9577Z"
      fill="currentColor"
    />
    <path
      d="M15.1011 20.1442C14.5188 20.1442 14.0469 20.6164 14.0469 21.1984C14.0469 21.7803 14.5188 22.2525 15.1011 22.2525C15.6834 22.2525 16.1552 21.7806 16.1552 21.1984C16.1551 20.6161 15.6833 20.1442 15.1011 20.1442Z"
      fill="currentColor"
    />
    <path
      d="M20.2287 1.31122H1.08853C0.763335 1.31122 0.499878 1.57468 0.499878 1.89987V23.9258C0.499878 24.4781 0.947593 24.9258 1.49988 24.9258H19.8177C20.3699 24.9258 20.8177 24.4781 20.8177 23.9258V1.89987C20.8174 1.57468 20.5539 1.31122 20.2287 1.31122ZM14.2557 2.74687C14.7452 2.74687 15.1419 3.14354 15.1419 3.63308C15.1419 4.12262 14.7452 4.51929 14.2557 4.51929C13.7662 4.51929 13.3695 4.12262 13.3695 3.63308C13.3695 3.14354 13.7662 2.74687 14.2557 2.74687ZM10.7444 2.04835C11.6193 2.04835 12.3288 2.7578 12.3288 3.63272C12.3288 4.50765 11.6193 5.21709 10.7444 5.21709C9.86949 5.21709 9.16005 4.50765 9.16005 3.63272C9.16005 2.7578 9.86949 2.04835 10.7444 2.04835ZM7.23314 2.74687C7.72262 2.74687 8.11935 3.14354 8.11935 3.63308C8.11935 4.12262 7.72262 4.51929 7.23314 4.51929C6.74365 4.51929 6.34692 4.12262 6.34692 3.63308C6.34728 3.14354 6.74395 2.74687 7.23314 2.74687ZM6.38768 22.8651C5.46802 22.8651 4.72268 22.1197 4.72268 21.2001C4.72268 20.2804 5.46832 19.5351 6.38768 19.5351C7.30735 19.5351 8.05268 20.2807 8.05268 21.2001C8.05268 22.1194 7.30735 22.8651 6.38768 22.8651ZM10.7444 22.8651C9.82475 22.8651 9.07942 22.1197 9.07942 21.2001C9.07942 20.2804 9.82475 19.5351 10.7444 19.5351C11.6641 19.5351 12.4094 20.2807 12.4094 21.2001C12.4094 22.1194 11.6641 22.8651 10.7444 22.8651ZM15.1012 22.8651C14.1815 22.8651 13.4362 22.1197 13.4362 21.2001C13.4362 20.2804 14.1815 19.5351 15.1012 19.5351C16.0208 19.5351 16.7662 20.2807 16.7662 21.2001C16.7661 22.1194 16.0208 22.8651 15.1012 22.8651ZM19.5327 17.2796H2.95614C2.40386 17.2796 1.95614 16.8319 1.95614 16.2796V7.02475C1.95614 6.47247 2.40386 6.02475 2.95614 6.02475H18.5326C19.0849 6.02475 19.5326 6.47247 19.5326 7.02475V17.2796C19.5326 17.2796 19.5327 17.2796 19.5327 17.2796Z"
      fill="currentColor"
    />
  </g>
  <defs>
    <clipPath id="clip0_1_18">
      <rect
        width="25"
        height="25"
        fill="white"
        transform="translate(0.499878 0.620789)"
      />
    </clipPath>
  </defs>
</svg>
